<svg xmlns="http://www.w3.org/2000/svg" xmlns:xlink="http://www.w3.org/1999/xlink" width="733.75" height="464.75" viewBox="0 0 733.75 464.75">
  <defs>
    <clipPath id="clip-path">
      <rect id="Rectangle_3585" data-name="Rectangle 3585" width="13" height="13" transform="translate(720 452)" fill="#fff"/>
    </clipPath>
    <clipPath id="clip-path-2">
      <rect id="Rectangle_3586" data-name="Rectangle 3586" width="10" height="10" transform="translate(417 7)" fill="#fff"/>
    </clipPath>
    <clipPath id="clip-path-3">
      <rect id="Rectangle_3587" data-name="Rectangle 3587" width="10" height="10" transform="translate(82 413)" fill="#fff"/>
    </clipPath>
  </defs>
  <g id="Group_427318149" data-name="Group 427318149" transform="translate(0.75 -0.25)">
    <path id="Path_8938" data-name="Path 8938" d="M666,7c5.1,0,5.1-6,10.2-6s5.1,6,10.2,6,5.1-6,10.2-6,5.1,6,10.2,6,5.1-6,10.2-6" fill="none" stroke="#28a745" stroke-linecap="round" stroke-linejoin="round" stroke-miterlimit="10" stroke-width="1.5" opacity="0.5"/>
    <path id="Path_8939" data-name="Path 8939" d="M0,239c4.5,0,4.5,5,9,5s4.5-5,9-5,4.5,5,9,5,4.5-5,9-5,4.5,5,9,5" fill="none" stroke="#232323" stroke-linecap="round" stroke-linejoin="round" stroke-miterlimit="10" stroke-width="1.5" opacity="0.2"/>
    <path id="Path_8940" data-name="Path 8940" d="M75.38,17,69,23.734l6.38,6.734,6.38-6.734Z" fill="none" stroke="#28a745" stroke-linecap="round" stroke-linejoin="round" stroke-miterlimit="10" stroke-width="1.5" opacity="0.5"/>
    <g id="Group_3883" data-name="Group 3883" opacity="0.2">
      <path id="Path_8941" data-name="Path 8941" d="M646.913,307.869l.521-1.9-1.9.521" fill="none" stroke="#232323" stroke-linecap="round" stroke-linejoin="round" stroke-width="1.5"/>
      <path id="Path_8942" data-name="Path 8942" d="M641.33,307.648l-6.314,1.707" fill="none" stroke="#232323" stroke-linecap="round" stroke-linejoin="round" stroke-width="1.5" stroke-dasharray="13.28 13.28"/>
      <path id="Path_8943" data-name="Path 8943" d="M632.9,309.947l-1.9.521,1.382,1.382" fill="none" stroke="#232323" stroke-linecap="round" stroke-linejoin="round" stroke-width="1.5"/>
      <path id="Path_8944" data-name="Path 8944" d="M635.446,314.914l4.584,4.584" fill="none" stroke="#232323" stroke-linecap="round" stroke-linejoin="round" stroke-width="1.5" stroke-dasharray="13.28 13.28"/>
      <path id="Path_8945" data-name="Path 8945" d="M641.55,321.018l1.382,1.382.522-1.9" fill="none" stroke="#232323" stroke-linecap="round" stroke-linejoin="round" stroke-width="1.5"/>
      <path id="Path_8946" data-name="Path 8946" d="M644.615,316.3l1.73-6.337" fill="none" stroke="#232323" stroke-linecap="round" stroke-linejoin="round" stroke-width="1.5" stroke-dasharray="13.28 13.28"/>
    </g>
    <path id="Path_8947" data-name="Path 8947" d="M482.5,388a4.5,4.5,0,1,1-4.5,4.5A4.5,4.5,0,0,1,482.5,388Z" fill="none" stroke="#28a745" stroke-linecap="round" stroke-linejoin="round" stroke-miterlimit="10" stroke-width="1.5" opacity="0.5"/>
    <g id="Group_3884" data-name="Group 3884" opacity="0.1" clip-path="url(#clip-path)">
      <path id="Path_8948" data-name="Path 8948" d="M726.484,452.313v12.374" fill="none" stroke="#232323" stroke-linecap="round" stroke-linejoin="round" stroke-miterlimit="10" stroke-width="2"/>
      <path id="Path_8949" data-name="Path 8949" d="M732.687,458.484H720.313" fill="none" stroke="#232323" stroke-linecap="round" stroke-linejoin="round" stroke-miterlimit="10" stroke-width="2"/>
    </g>
    <g id="Group_3885" data-name="Group 3885" opacity="0.2" clip-path="url(#clip-path-2)">
      <path id="Path_8950" data-name="Path 8950" d="M421.988,7.241v9.518" fill="none" stroke="#231f20" stroke-linecap="round" stroke-linejoin="round" stroke-miterlimit="10" stroke-width="1.5"/>
      <path id="Path_8951" data-name="Path 8951" d="M426.759,11.988h-9.518" fill="none" stroke="#231f20" stroke-linecap="round" stroke-linejoin="round" stroke-miterlimit="10" stroke-width="1.5"/>
    </g>
    <g id="Group_3886" data-name="Group 3886" opacity="0.2" clip-path="url(#clip-path-3)">
      <path id="Path_8952" data-name="Path 8952" d="M86.988,413.241v9.518" fill="none" stroke="#231f20" stroke-linecap="round" stroke-linejoin="round" stroke-miterlimit="10" stroke-width="1.5"/>
      <path id="Path_8953" data-name="Path 8953" d="M91.759,417.988H82.241" fill="none" stroke="#231f20" stroke-linecap="round" stroke-linejoin="round" stroke-miterlimit="10" stroke-width="1.5"/>
    </g>
  </g>
</svg>
